<?xml version="1.0" standalone="no"?>
<!DOCTYPE svg PUBLIC "-//W3C//DTD SVG 20010904//EN"
 "http://www.w3.org/TR/2001/REC-SVG-20010904/DTD/svg10.dtd">
<svg version="1.0" xmlns="http://www.w3.org/2000/svg"
 width="1200.000000pt" height="222.000000pt" viewBox="0 0 1200.000000 222.000000"
 preserveAspectRatio="xMidYMid meet">

<g transform="translate(0.000000,222.000000) scale(0.100000,-0.100000)"
fill="#000000" stroke="none">
<path d="M5329 2138 c-28 -30 -29 -37 -23 -83 8 -64 26 -98 66 -128 30 -23
131 -77 142 -77 3 0 -8 22 -25 48 -26 42 -31 62 -36 142 -6 90 -7 93 -37 111
-42 26 -52 24 -87 -13z"/>
<path d="M6589 2141 c-27 -27 -29 -35 -29 -106 0 -78 -15 -130 -43 -154 -32
-26 -17 -30 33 -9 69 29 137 90 150 136 19 69 13 108 -21 136 -39 33 -54 33
-90 -3z"/>
<path d="M5576 1954 c-19 -18 -22 -101 -5 -138 13 -28 81 -79 134 -102 36 -15
36 -15 23 7 -7 12 -19 31 -25 43 -7 11 -13 51 -13 87 0 52 -5 72 -21 93 -24
30 -69 35 -93 10z"/>
<path d="M6352 1962 c-7 -5 -16 -46 -21 -101 -6 -71 -14 -100 -31 -123 -41
-56 -5 -46 87 24 70 53 95 133 57 186 -16 23 -66 30 -92 14z"/>
<path d="M4660 1939 c-43 -26 -98 -77 -112 -104 -5 -11 4 -3 22 18 51 60 112
90 200 98 l75 6 -75 1 c-60 2 -82 -2 -110 -19z"/>
<path d="M7203 1953 c20 -2 54 -2 75 0 20 2 3 4 -38 4 -41 0 -58 -2 -37 -4z"/>
<path d="M4889 1929 c25 -11 52 -25 60 -32 14 -11 14 -10 1 7 -15 20 -69 46
-92 46 -7 0 7 -10 31 -21z"/>
<path d="M7113 1934 c-48 -24 -99 -85 -119 -142 -20 -56 -30 -60 -128 -64 -37
-1 -27 -3 34 -7 79 -6 85 -8 88 -28 l3 -23 -148 1 c-142 1 -310 13 -248 18 17
2 24 5 17 8 -26 10 -298 -60 -434 -112 -11 -4 -18 1 -23 15 -9 27 -133 160
-150 160 -16 0 -104 -94 -134 -142 -12 -21 -24 -38 -26 -38 -1 0 -22 7 -45 15
-24 8 -45 13 -47 11 -2 -2 19 -12 47 -22 50 -18 50 -18 44 -54 -4 -19 -8 -36
-9 -38 -1 -1 -35 6 -75 17 -230 64 -567 40 -815 -59 -162 -64 -264 -127 -350
-216 -93 -96 -170 -138 -334 -182 -84 -22 -117 -25 -261 -26 -143 -1 -176 2
-245 22 -110 31 -117 37 -81 65 79 61 376 245 486 302 154 78 305 145 328 145
11 0 30 -26 55 -74 21 -40 53 -91 73 -112 34 -38 33 -37 -9 31 -55 87 -77 130
-77 149 0 10 23 20 75 31 83 19 102 17 190 -16 79 -29 116 -22 183 35 44 37
61 46 109 52 57 7 480 -1 538 -11 62 -10 -63 26 -157 45 -71 15 -367 49 -435
50 -2 0 -3 8 -3 18 -1 9 -7 31 -15 47 -13 30 -13 30 -8 -16 l5 -46 -53 -6
c-75 -9 -249 -9 -249 1 0 4 8 19 17 32 12 18 5 14 -25 -12 -29 -26 -53 -38
-75 -40 -27 -1 -25 -2 13 -7 42 -6 45 -8 52 -45 6 -28 5 -42 -4 -47 -19 -12
-146 -32 -162 -26 -15 6 -27 97 -13 97 4 0 5 10 2 23 -3 12 1 39 10 60 8 20
13 37 10 37 -2 0 -14 -22 -26 -49 -24 -57 -13 -53 -254 -96 -187 -34 -358 -74
-601 -140 -110 -30 -204 -55 -208 -55 -16 0 2 80 32 144 37 79 99 148 159 177
69 34 170 24 269 -26 41 -21 76 -36 79 -33 7 6 -83 79 -124 100 -26 14 -58 18
-128 18 -81 0 -101 -4 -145 -26 -110 -56 -200 -184 -223 -319 l-11 -70 -147
-46 c-199 -64 -312 -93 -331 -86 -11 5 -16 20 -16 49 -1 106 -73 175 -172 166
-36 -4 -57 -13 -79 -34 -36 -34 -55 -95 -39 -124 16 -30 70 -60 106 -60 35 0
84 41 84 70 0 30 -39 70 -68 69 -26 -1 -25 -1 6 -10 91 -27 40 -138 -53 -115
-93 24 -82 160 15 186 110 30 189 -39 190 -167 0 -38 -6 -40 -195 -73 -66 -11
-130 -23 -141 -25 -16 -3 -53 19 -135 80 -185 139 -292 178 -387 140 -82 -33
-122 -104 -122 -221 0 -74 0 -74 -114 -74 -45 0 -86 -4 -91 -9 -12 -12 -178
-26 -470 -41 -121 -6 -283 -15 -360 -20 -132 -8 -128 -8 60 -4 110 2 279 10
375 16 96 6 218 12 271 12 54 1 95 4 94 7 -2 3 53 11 121 18 l125 12 39 -35
c38 -34 138 -91 146 -83 2 2 -18 14 -46 27 -49 23 -109 75 -98 85 9 9 355 55
468 61 99 6 108 5 155 -19 68 -34 130 -50 168 -41 19 4 55 30 94 70 46 46 74
66 106 74 89 23 157 43 295 87 79 25 147 41 152 37 4 -5 18 -42 30 -82 21 -71
21 -74 3 -87 -49 -37 -313 -122 -608 -197 l-200 -50 -220 4 c-222 4 -228 -3
-15 -18 l115 -7 -115 -37 c-63 -20 -128 -44 -145 -54 -32 -18 -30 -18 80 20
39 14 216 61 395 105 190 47 412 109 533 150 l208 71 82 -78 c45 -43 83 -81
85 -85 5 -12 -162 -156 -208 -179 -25 -13 -79 -49 -121 -81 -136 -103 -235
-153 -332 -167 -36 -5 -52 -12 -52 -22 0 -38 107 -52 185 -25 23 8 45 15 48
15 3 0 -31 -37 -75 -82 -83 -87 -95 -103 -118 -169 -19 -54 -4 -59 74 -23 62
27 109 70 170 156 19 27 36 46 39 44 2 -3 -1 -21 -8 -41 -7 -20 -13 -58 -14
-85 -1 -41 3 -53 28 -79 16 -17 32 -28 35 -25 3 3 8 41 12 84 6 73 14 94 93
257 47 98 88 193 92 210 6 33 97 145 146 183 l28 21 91 -31 c218 -75 459 -49
782 85 14 6 8 -8 -19 -51 -41 -63 -134 -269 -133 -294 0 -8 15 21 33 65 85
209 155 308 275 390 60 41 74 47 103 41 29 -6 30 -5 14 7 -17 12 -10 17 75 54
197 85 367 129 554 142 121 8 290 2 360 -14 84 -19 93 -24 100 -63 3 -20 8
-45 11 -54 5 -16 -4 -18 -91 -18 -96 0 -98 -1 -186 -46 -74 -38 -101 -59 -152
-117 -92 -105 -141 -151 -191 -178 l-45 -23 -44 22 c-52 26 -75 27 -124 7 -38
-16 -55 -13 -35 7 18 18 14 73 -5 91 -10 8 -45 22 -77 31 -46 11 -70 25 -105
60 -26 26 -50 46 -54 46 -4 0 -7 -19 -7 -43 0 -43 11 -66 62 -125 52 -61 29
-82 -39 -36 -65 44 -100 32 -246 -90 l-29 -23 88 -56 c48 -32 97 -57 109 -57
11 0 52 16 90 35 38 19 71 32 73 30 3 -3 -8 -23 -24 -45 -16 -22 -39 -54 -51
-71 -24 -33 -31 -93 -13 -104 6 -3 36 14 68 38 32 25 73 47 93 51 21 4 49 16
64 28 22 17 26 27 23 57 -3 20 -9 45 -13 55 -7 17 -6 18 11 11 49 -21 88 -17
129 14 22 17 64 47 94 67 29 20 71 52 92 71 l39 35 0 -36 c0 -66 30 -173 61
-215 29 -41 101 -86 122 -77 8 3 8 5 -1 5 -28 2 -103 63 -126 104 -34 58 -45
185 -22 242 26 61 64 104 129 146 103 67 253 99 320 68 13 -6 53 -55 88 -110
35 -54 69 -99 74 -99 10 0 57 62 118 154 39 61 66 70 174 58 128 -15 258 -92
308 -183 24 -44 28 -64 28 -133 1 -65 -3 -89 -20 -121 -30 -56 -69 -94 -117
-116 -23 -10 -35 -19 -28 -19 27 0 91 41 121 77 39 47 61 118 61 196 l0 59 41
-34 c44 -35 116 -89 189 -138 45 -31 68 -34 127 -15 23 7 23 7 8 -29 -22 -53
-11 -84 39 -107 22 -10 48 -19 57 -19 9 0 43 -20 75 -45 31 -25 61 -45 65 -45
12 0 16 42 7 74 -4 15 -26 53 -49 82 -23 30 -39 58 -35 61 4 4 38 -10 77 -30
81 -42 91 -40 174 22 28 21 61 44 75 51 l24 13 -44 39 c-111 96 -171 118 -221
79 -13 -10 -34 -23 -46 -30 -39 -20 -29 27 17 83 44 54 55 83 46 122 l-7 26
-48 -45 c-37 -35 -65 -50 -120 -67 -84 -25 -101 -46 -82 -101 14 -41 10 -44
-28 -25 -41 22 -76 20 -127 -5 -68 -35 -90 -20 -295 199 -41 43 -79 71 -135
98 -72 36 -86 39 -176 42 -93 4 -98 5 -98 25 -1 21 -1 21 -14 -2 -8 -14 -36
-38 -62 -54 -27 -16 -41 -26 -31 -23 43 14 67 18 67 10 0 -11 -88 -150 -104
-163 -11 -9 -24 5 -70 72 -31 47 -56 88 -56 92 0 4 14 5 32 1 l31 -6 -41 29
c-22 17 -43 39 -46 50 -3 12 -9 30 -12 41 -8 28 24 26 86 -5 61 -31 65 -31
132 0 67 31 88 32 89 3 0 -18 3 -15 12 12 11 31 17 36 67 47 162 37 415 34
608 -8 138 -30 385 -119 416 -149 6 -6 -8 -17 -35 -29 -57 -25 -44 -27 19 -2
l49 20 65 -44 c36 -24 89 -70 120 -104 54 -60 144 -218 168 -296 14 -44 37
-77 25 -35 -14 47 -82 195 -118 255 -20 32 -35 61 -33 63 2 2 17 -3 33 -11 15
-8 76 -31 134 -50 271 -90 463 -93 672 -11 l49 19 73 -77 c55 -57 77 -87 85
-120 6 -23 50 -119 97 -213 84 -170 91 -190 113 -354 1 -9 33 25 46 50 18 35
18 83 0 142 -8 26 -13 47 -11 47 2 0 33 -38 69 -85 57 -72 76 -89 130 -115 82
-39 100 -39 91 -2 -13 57 -47 110 -121 190 -41 45 -74 82 -71 82 2 0 24 -7 47
-15 52 -18 116 -19 150 -2 43 22 31 40 -36 54 -121 24 -198 64 -334 173 -35
28 -87 62 -115 75 -29 14 -81 55 -124 99 l-75 75 83 82 83 81 212 -70 c116
-39 227 -73 246 -76 45 -7 31 -2 -165 59 -187 59 -275 98 -275 121 0 26 43
154 51 154 4 0 79 -22 166 -49 87 -27 195 -59 240 -71 76 -20 86 -26 123 -70
22 -27 60 -58 85 -70 54 -26 92 -21 191 26 l72 34 248 -30 c284 -34 314 -39
314 -50 0 -15 -64 -63 -115 -86 -27 -13 -44 -24 -37 -24 23 0 89 38 137 80 51
44 51 44 145 30 148 -21 876 -61 1060 -58 77 1 91 3 40 5 -429 15 -967 47
-978 57 -6 7 45 13 193 26 258 23 467 73 561 135 60 39 99 106 88 149 -11 45
-19 36 -19 -19 0 -46 -4 -58 -30 -85 -96 -101 -396 -167 -849 -186 l-159 -7 7
55 c9 74 -8 137 -52 189 -41 48 -84 69 -141 69 -43 0 -135 -30 -167 -55 -10
-8 7 -3 38 11 86 38 152 42 208 12 66 -36 103 -100 103 -179 -1 -93 -6 -95
-155 -80 -155 15 -400 49 -406 56 -9 8 29 44 103 97 38 29 75 56 80 62 19 19
-51 -28 -141 -95 l-92 -67 -143 24 c-79 13 -159 29 -176 35 -32 10 -33 13 -33
62 0 57 23 106 62 130 87 55 198 8 198 -83 0 -51 -26 -80 -76 -87 -36 -5 -43
-2 -67 27 -17 19 -27 26 -27 16 0 -22 49 -56 82 -56 97 0 141 106 70 172 -54
50 -103 61 -165 34 -59 -25 -97 -90 -97 -169 0 -52 -19 -50 -305 40 -99 31
-181 57 -183 59 -2 1 -8 33 -13 70 -17 124 -84 226 -200 303 l-61 41 -103 0
c-101 0 -102 0 -161 -38 -32 -22 -68 -49 -79 -61 l-19 -22 26 10 c15 6 51 23
80 38 45 23 65 28 133 28 59 0 90 -5 120 -20 53 -26 109 -84 139 -143 27 -53
61 -161 53 -168 -3 -3 -108 22 -234 55 -278 74 -404 103 -593 137 -228 40
-216 35 -252 110 -31 65 -87 132 -130 155 -13 7 0 -9 29 -35 55 -50 124 -170
107 -185 -5 -4 -44 -3 -86 3 -63 10 -83 17 -109 41 l-32 30 18 -27 17 -28
-109 0 c-61 0 -131 3 -157 6 l-46 7 6 36 c13 70 45 111 119 149 47 25 36 29
-12 6z m-1063 -220 c40 -34 90 -107 90 -132 0 -14 -20 -30 -68 -55 l-68 -36
-63 36 c-34 19 -65 41 -68 49 -3 7 5 29 16 48 23 37 105 116 120 116 5 0 23
-12 41 -26z m-1040 -13 c0 -10 -6 -23 -13 -29 -11 -10 -200 -42 -245 -42 -47
0 -71 63 -29 80 12 5 82 9 155 9 123 1 132 0 132 -18z m250 9 c52 -6 115 -13
140 -17 l45 -7 -55 -7 c-30 -4 -126 -7 -212 -8 -124 -1 -158 2 -158 12 0 39
59 45 240 27z m2013 4 c44 -6 46 -8 40 -33 -11 -49 -22 -54 -93 -47 -164 17
-220 35 -220 72 0 11 22 14 114 14 62 0 134 -3 159 -6z m220 -21 c16 -4 18
-11 12 -51 -4 -26 -9 -49 -11 -51 -7 -7 -143 18 -165 30 -15 8 -17 14 -9 29 5
10 10 28 10 40 0 21 3 22 73 15 39 -3 80 -9 90 -12z m-2998 -47 c12 -63 7 -68
-83 -91 -46 -11 -81 -23 -77 -26 3 -4 -54 -38 -128 -77 -160 -84 -339 -191
-462 -276 -108 -75 -113 -77 -145 -61 -33 17 -120 110 -120 129 0 10 85 42
288 109 158 52 315 103 350 112 34 10 61 20 58 22 -6 7 -238 -63 -488 -147
l-227 -77 -11 31 c-6 17 -13 57 -17 88 l-6 58 38 16 c55 22 367 106 558 149
230 53 343 73 409 74 l57 1 6 -34z m3380 -16 c215 -44 384 -85 588 -145 l128
-38 -7 -46 c-9 -67 -23 -119 -34 -126 -6 -4 -126 32 -268 79 -285 94 -402 129
-408 124 -2 -2 74 -28 168 -56 185 -57 478 -159 491 -171 4 -4 -4 -22 -18 -41
-25 -34 -111 -110 -125 -110 -4 0 -58 35 -121 77 -137 92 -294 187 -448 268
-92 49 -109 61 -90 65 16 4 -12 15 -91 36 l-115 30 -3 38 c-6 66 -1 70 81 63
39 -4 162 -25 272 -47z m-868 -1 c51 -49 105 -79 140 -79 18 0 61 11 95 25 34
14 73 25 87 25 38 0 141 -26 153 -38 12 -12 -63 -152 -113 -213 l-26 -33 -144
72 c-79 40 -187 86 -239 104 l-95 32 -273 4 c-259 3 -277 2 -339 -19 -71 -23
-83 -19 -83 28 0 26 20 38 130 78 104 37 170 44 442 42 l237 -2 28 -26z
m-2017 8 c0 -34 -89 -81 -139 -74 -43 6 -116 35 -108 43 6 6 196 42 230 43 9
1 17 -5 17 -12z m2140 -2 c165 -26 172 -31 87 -60 -67 -23 -115 -15 -162 27
-33 28 -44 48 -27 48 4 0 50 -7 102 -15z m563 -141 c65 -29 169 -81 230 -115
116 -64 447 -278 447 -290 0 -9 -122 -46 -194 -58 -139 -25 -347 -7 -491 42
-121 42 -185 81 -265 161 l-74 76 25 27 c34 36 80 106 109 163 12 25 28 48 34
52 17 11 51 0 179 -58z m-1753 19 l68 -36 56 31 c73 42 96 42 96 2 0 -32 -11
-41 -107 -92 -41 -22 -41 -22 -84 -3 -70 32 -119 72 -119 98 0 22 7 37 18 37
3 0 35 -16 72 -37z m-3740 -93 c99 -50 240 -159 240 -184 0 -18 -526 -74 -541
-59 -7 7 -14 37 -17 68 -4 45 0 64 23 111 39 80 69 96 170 91 58 -2 92 -10
125 -27z m630 -154 c0 -22 -96 -103 -130 -109 -31 -7 -151 30 -173 52 -14 14
-7 16 148 45 159 30 155 29 155 12z m6659 -42 c21 -7 -13 -28 -86 -53 -50 -17
-67 -18 -99 -9 -41 11 -130 90 -120 106 5 8 266 -29 305 -44z"/>
<path d="M4268 1513 c7 -3 16 -2 19 1 4 3 -2 6 -13 5 -11 0 -14 -3 -6 -6z"/>
<path d="M4205 1500 c-13 -5 -14 -9 -5 -9 8 0 24 4 35 9 13 5 14 9 5 9 -8 0
-24 -4 -35 -9z"/>
<path d="M7775 1501 c11 -4 36 -11 55 -15 24 -4 29 -3 15 3 -11 4 -36 11 -55
15 -24 4 -29 3 -15 -3z"/>
<path d="M4775 1811 c-15 -6 -8 -10 30 -13 28 -2 59 -8 70 -11 11 -4 2 2 -20
13 -44 21 -51 22 -80 11z"/>
<path d="M7165 1800 c-22 -11 -31 -17 -20 -13 11 3 43 9 70 11 38 3 45 7 30
13 -29 11 -36 10 -80 -11z"/>
<path d="M6743 1713 c15 -2 37 -2 50 0 12 2 0 4 -28 4 -27 0 -38 -2 -22 -4z"/>
<path d="M4543 1703 c9 -2 25 -2 35 0 9 3 1 5 -18 5 -19 0 -27 -2 -17 -5z"/>
<path d="M6648 1703 c12 -2 30 -2 40 0 9 3 -1 5 -23 4 -22 0 -30 -2 -17 -4z"/>
<path d="M5675 1630 c27 -12 43 -12 25 0 -8 5 -22 9 -30 9 -10 0 -8 -3 5 -9z"/>
<path d="M856 1509 c-15 -12 -25 -29 -25 -42 2 -22 2 -22 6 0 15 79 147 64
145 -17 -1 -39 -17 -52 -52 -44 -38 8 -45 20 -31 50 11 24 10 26 -3 14 -34
-27 -7 -80 40 -80 31 0 64 33 64 64 0 31 -53 76 -89 76 -16 0 -40 -9 -55 -21z"/>
<path d="M11039 1501 c-34 -35 -36 -49 -8 -85 28 -36 79 -34 99 4 11 20 4 50
-11 50 -6 0 -6 -8 0 -19 8 -14 6 -22 -8 -35 -26 -24 -60 -20 -72 8 -17 36 -4
72 31 86 28 12 39 11 85 -5 20 -7 20 -6 1 9 -32 26 -83 20 -117 -13z"/>
<path d="M11065 1470 c-3 -6 1 -7 9 -4 18 7 21 14 7 14 -6 0 -13 -4 -16 -10z"/>
<path d="M9293 1430 c-18 -11 -33 -26 -33 -34 0 -11 7 -8 25 9 13 14 31 25 39
25 8 0 18 5 21 10 10 17 -18 11 -52 -10z"/>
<path d="M830 1398 c0 -10 16 -36 36 -58 36 -40 145 -90 224 -104 19 -3 1 5
-40 19 -103 33 -181 82 -202 125 -10 20 -18 27 -18 18z"/>
<path d="M5505 1310 c-16 -4 -91 -24 -165 -45 -103 -29 -163 -40 -255 -46
l-120 -7 125 3 c110 2 143 8 270 43 80 22 170 44 200 50 51 9 52 9 15 10 -22
0 -53 -3 -70 -8z"/>
<path d="M6440 1314 c14 -3 85 -21 159 -40 73 -19 135 -33 138 -31 8 8 -214
68 -267 72 -30 2 -44 2 -30 -1z"/>
<path d="M357 1293 c-13 -13 -7 -58 12 -90 22 -35 91 -79 139 -89 29 -6 32 -4
32 19 0 71 -145 198 -183 160z"/>
<path d="M11579 1277 c-32 -17 -51 -37 -70 -73 -42 -77 -45 -94 -17 -94 32 0
122 54 146 87 27 39 37 84 20 94 -20 13 -31 11 -79 -14z"/>
<path d="M4850 1230 c25 -8 107 -13 99 -6 -2 2 -31 6 -64 9 -37 3 -51 2 -35
-3z"/>
<path d="M1175 1215 c28 -7 61 -13 75 -13 14 0 -2 6 -35 14 -76 17 -107 16
-40 -1z"/>
<path d="M7063 1223 c15 -2 37 -2 50 0 12 2 0 4 -28 4 -27 0 -38 -2 -22 -4z"/>
<path d="M6928 1213 c17 -2 47 -2 65 0 17 2 3 4 -33 4 -36 0 -50 -2 -32 -4z"/>
<path d="M1288 1193 c6 -2 18 -2 25 0 6 3 1 5 -13 5 -14 0 -19 -2 -12 -5z"/>
<path d="M1338 1183 c7 -3 16 -2 19 1 4 3 -2 6 -13 5 -11 0 -14 -3 -6 -6z"/>
<path d="M1533 1163 c9 -2 25 -2 35 0 9 3 1 5 -18 5 -19 0 -27 -2 -17 -5z"/>
<path d="M100 1102 c-48 -49 -36 -103 28 -119 60 -15 259 46 270 84 5 19 -107
55 -190 61 -75 4 -78 4 -108 -26z"/>
<path d="M11694 1110 c-98 -32 -99 -42 -8 -86 58 -28 94 -38 145 -42 62 -4 69
-3 93 21 32 32 33 58 2 94 -22 25 -31 28 -97 30 -53 2 -92 -3 -135 -17z"/>
<path d="M1561 1079 c-29 -16 -67 -29 -84 -29 -17 0 -87 -18 -156 -41 -139
-45 -233 -57 -338 -41 -56 8 -63 7 -63 -8 0 -42 81 -79 175 -80 40 -1 39 -1
-54 -50 -91 -47 -191 -130 -191 -157 0 -10 21 -13 79 -13 l79 0 88 60 c48 33
89 58 91 56 2 -2 -10 -25 -28 -50 -35 -53 -46 -110 -27 -145 16 -29 31 -28 39
3 14 52 88 147 208 266 105 106 250 262 239 259 -2 0 -27 -14 -57 -30z"/>
<path d="M10459 1039 c36 -40 127 -135 202 -213 107 -112 142 -155 168 -209
18 -37 36 -65 41 -62 5 3 14 21 20 40 14 43 5 75 -41 141 -29 43 -30 45 -8 34
13 -7 56 -35 95 -61 70 -49 71 -49 152 -49 46 0 82 4 82 10 0 26 -111 119
-193 161 l-89 46 61 6 c79 9 128 30 143 62 6 14 9 27 7 29 -2 2 -39 -1 -82 -7
-99 -14 -197 -1 -341 47 -59 20 -121 36 -139 36 -34 0 -110 31 -121 49 -4 6
-11 11 -15 11 -4 0 22 -32 58 -71z"/>
<path d="M9091 1076 c6 -7 206 -56 221 -55 13 1 -198 58 -216 59 -5 0 -7 -2
-5 -4z"/>
<path d="M5591 1053 c-70 -35 -91 -117 -45 -172 31 -37 79 -42 115 -11 l24 20
-30 -15 c-16 -8 -40 -15 -52 -15 -28 0 -73 54 -73 89 0 56 67 111 135 111 46
0 88 -40 104 -96 15 -53 14 -72 -8 -120 -20 -44 -58 -76 -118 -100 l-38 -14
35 5 c115 18 182 152 130 260 -34 70 -106 94 -179 58z"/>
<path d="M6292 1050 c-36 -22 -71 -88 -72 -133 -1 -92 86 -179 192 -192 l43
-5 -50 13 c-67 18 -85 29 -128 77 -35 38 -37 44 -37 106 0 64 2 68 39 105 29
29 47 39 70 39 49 0 109 -36 129 -76 16 -34 15 -37 -3 -72 -27 -49 -63 -61
-112 -38 -34 16 -36 16 -22 1 9 -9 34 -19 55 -22 33 -4 44 -1 66 22 54 54 43
121 -29 170 -46 31 -96 32 -141 5z"/>
<path d="M479 1022 c-55 -36 -73 -57 -88 -104 -14 -41 -2 -78 24 -78 24 0 97
72 116 115 22 47 25 95 6 95 -7 0 -33 -13 -58 -28z"/>
<path d="M11460 1035 c0 -25 32 -98 57 -133 27 -36 78 -66 99 -58 21 8 17 73
-6 112 -37 59 -150 119 -150 79z"/>
<path d="M9338 1013 c7 -3 16 -2 19 1 4 3 -2 6 -13 5 -11 0 -14 -3 -6 -6z"/>
<path d="M9512 969 c177 -46 253 -71 345 -116 88 -43 100 -56 113 -121 12 -67
27 -88 75 -111 l40 -19 -37 -15 c-20 -8 -44 -27 -53 -40 -16 -24 -15 -28 13
-84 20 -38 32 -81 37 -125 4 -37 10 -70 14 -73 13 -8 71 60 81 96 6 18 10 51
10 72 0 57 21 42 42 -30 10 -33 27 -68 37 -77 20 -18 205 -55 217 -44 10 10
-17 172 -34 208 -14 29 -25 37 -66 47 -27 7 -56 19 -65 27 -13 13 -11 16 13
26 15 5 41 10 57 10 38 0 89 22 112 48 18 20 18 20 -45 27 -42 5 -85 19 -130
43 -66 34 -68 34 -93 18 -15 -10 -31 -31 -37 -47 -12 -34 -24 -30 -33 10 -8
38 -51 81 -80 81 -12 0 -70 25 -129 56 -59 30 -165 75 -237 98 l-131 43 124 9
c152 10 135 12 -110 16 l-193 4 143 -37z"/>
<path d="M9813 1003 c9 -2 25 -2 35 0 9 3 1 5 -18 5 -19 0 -27 -2 -17 -5z"/>
<path d="M2095 834 c-33 -19 -83 -41 -111 -49 -58 -18 -74 -33 -99 -90 l-17
-40 -10 32 c-4 18 -20 40 -34 50 -25 16 -28 16 -98 -19 -43 -22 -94 -39 -128
-43 -32 -3 -58 -10 -58 -15 0 -27 118 -69 193 -70 5 0 7 -8 5 -17 -2 -11 -22
-23 -57 -33 -74 -21 -88 -44 -104 -162 -8 -54 -12 -99 -10 -101 2 -2 49 5 106
15 114 21 129 32 148 101 29 109 49 112 49 7 0 -68 0 -69 42 -105 38 -32 43
-34 50 -18 3 10 7 41 7 68 1 29 9 64 20 85 53 96 51 119 -11 151 l-42 21 37
19 c45 24 63 50 72 109 10 63 18 74 77 109 29 17 49 30 43 30 -5 0 -37 -16
-70 -35z"/>
<path d="M5578 723 c7 -3 16 -2 19 1 4 3 -2 6 -13 5 -11 0 -14 -3 -6 -6z"/>
<path d="M4212 684 c-63 -31 -107 -73 -116 -110 -15 -59 52 -69 114 -17 31 26
73 90 85 131 9 30 -16 29 -83 -4z"/>
<path d="M4355 699 c-4 -5 5 -35 20 -65 33 -67 86 -107 137 -102 29 3 33 6 31
30 -3 40 -45 91 -102 121 -52 29 -76 33 -86 16z"/>
<path d="M7582 684 c-91 -45 -141 -128 -93 -154 26 -14 66 2 110 43 32 31 70
98 71 125 0 19 -31 14 -88 -14z"/>
<path d="M7725 700 c-10 -16 30 -93 66 -126 51 -47 139 -68 139 -32 0 38 -84
128 -142 153 -44 18 -55 19 -63 5z"/>
<path d="M4292 528 c-34 -91 -52 -160 -52 -199 0 -67 70 -122 116 -91 33 22
44 103 24 189 -14 62 -50 153 -60 153 -5 0 -17 -24 -28 -52z"/>
<path d="M7671 531 c-47 -91 -63 -209 -36 -261 17 -33 43 -44 86 -35 37 8 49
36 49 108 0 53 -35 167 -63 207 l-15 22 -21 -41z"/>
</g>
</svg>
