<?xml version="1.0" standalone="no"?>
<!DOCTYPE svg PUBLIC "-//W3C//DTD SVG 20010904//EN"
 "http://www.w3.org/TR/2001/REC-SVG-20010904/DTD/svg10.dtd">
<svg version="1.0" xmlns="http://www.w3.org/2000/svg"
 width="686.000000pt" height="1280.000000pt" viewBox="0 0 686.000000 1280.000000"
 preserveAspectRatio="xMidYMid meet">
<metadata>
Created by potrace 1.15, written by Peter Selinger 2001-2017
</metadata>
<g transform="translate(0.000000,1280.000000) scale(0.100000,-0.100000)"
fill="#000000" stroke="none">
<path d="M3355 12787 c-68 -31 -114 -99 -122 -181 -6 -58 6 -95 67 -196 83
-139 121 -288 121 -474 0 -231 -68 -392 -215 -508 l-51 -41 90 9 c50 5 221 9
380 9 272 0 292 1 324 20 73 43 97 112 63 188 -36 80 -111 106 -197 68 -26
-12 -46 -24 -42 -27 3 -3 18 1 34 9 106 55 203 0 203 -114 0 -53 -23 -90 -73
-116 -28 -15 -74 -17 -367 -18 -184 0 -343 -5 -354 -9 -10 -5 11 20 46 56 71
73 125 169 154 278 27 97 25 307 -4 422 -26 107 -61 191 -112 272 -43 68 -63
137 -54 188 10 52 50 114 91 139 42 26 123 31 161 10 l24 -13 -21 -19 c-40
-37 -18 -99 35 -99 26 0 64 32 64 53 0 28 -31 56 -100 88 -39 18 -112 21 -145
6z"/>
<path d="M2380 12750 c-122 -32 -232 -93 -324 -181 -45 -42 -97 -102 -116
-133 -19 -32 -43 -67 -52 -78 -28 -33 -119 -223 -125 -261 -5 -34 14 -67 41
-67 35 0 49 28 67 141 27 156 33 177 79 247 104 162 264 275 448 318 105 25
294 15 397 -20 206 -70 368 -218 460 -420 49 -107 68 -195 68 -321 0 -127 -19
-214 -69 -324 -79 -173 -255 -337 -381 -356 -77 -11 -299 -70 -423 -113 -614
-210 -1114 -584 -1376 -1028 -181 -308 -264 -639 -264 -1052 0 -344 43 -614
147 -927 89 -267 272 -589 464 -820 132 -158 390 -416 689 -690 251 -230 616
-593 606 -603 -3 -2 -37 18 -78 46 -277 186 -569 328 -800 389 -95 26 -118 28
-298 28 -184 0 -198 -1 -248 -24 -112 -51 -192 -191 -179 -316 22 -215 220
-323 469 -255 289 79 598 86 853 20 307 -79 627 -284 763 -488 101 -150 210
-342 262 -457 l30 -66 -68 66 c-122 121 -289 214 -467 261 -87 23 -120 27
-255 27 -136 0 -167 -3 -255 -26 -412 -110 -705 -434 -766 -846 -22 -157 5
-365 67 -513 55 -131 188 -328 305 -451 50 -52 60 -58 90 -55 24 2 37 10 45
27 24 47 12 60 -175 190 -73 51 -100 77 -136 132 -103 154 -153 305 -162 489
-7 139 6 231 51 363 105 306 362 539 694 629 115 31 353 31 476 0 188 -47 335
-130 466 -262 115 -115 159 -187 208 -340 51 -157 72 -312 79 -570 13 -447
-64 -855 -246 -1309 -23 -57 -51 -120 -62 -140 -23 -42 -20 -31 31 104 195
509 281 1159 215 1617 -64 440 -385 738 -795 738 -248 0 -487 -114 -637 -304
-173 -220 -218 -502 -121 -761 16 -44 31 -87 32 -95 4 -37 148 -265 177 -280
29 -16 58 -11 69 11 18 32 5 62 -42 99 -120 97 -176 160 -207 233 -63 153 -77
347 -37 502 54 204 215 399 409 493 132 65 190 77 362 76 136 0 158 -3 230
-27 259 -87 448 -299 520 -582 62 -245 54 -687 -20 -1090 -98 -532 -319 -1054
-613 -1449 -540 -724 -1312 -1295 -2053 -1520 -174 -52 -316 -77 -477 -83 -86
-4 -142 -10 -142 -16 0 -13 217 -2 360 18 239 35 584 138 857 256 344 150 641
319 1013 577 337 234 540 401 775 637 317 317 550 633 753 1021 47 90 114 202
151 251 259 347 673 624 1091 732 274 70 541 66 835 -11 118 -32 288 -31 369
1 120 48 183 145 174 271 -15 209 -183 341 -529 416 -125 27 -388 25 -525 -4
-426 -91 -855 -362 -1225 -774 -44 -48 -79 -84 -79 -78 0 5 10 71 22 147 16
104 21 184 21 323 1 204 -11 306 -69 605 -33 168 -35 189 -31 325 6 168 25
249 90 375 51 100 162 215 259 269 129 72 218 179 218 263 0 18 2 33 5 33 3 0
22 -9 42 -20 49 -26 88 -25 143 3 33 16 51 34 68 67 28 56 28 84 0 140 -30 59
-93 94 -154 86 l-42 -5 15 47 c9 31 13 75 11 127 -5 103 -41 187 -107 248 -66
62 -122 81 -218 75 -68 -4 -89 -10 -163 -48 -241 -126 -436 -441 -546 -886
l-37 -151 -41 61 c-120 179 -436 538 -951 1081 -368 389 -565 656 -740 1005
-164 328 -238 610 -239 910 0 174 9 240 51 380 119 398 445 636 843 617 364
-17 670 -263 771 -620 20 -69 23 -105 23 -222 -1 -125 -4 -149 -28 -225 -69
-212 -205 -380 -385 -473 -72 -38 -132 -53 -256 -63 -89 -7 -125 -23 -125 -57
0 -30 18 -47 49 -47 31 0 235 82 271 108 14 10 54 34 89 52 76 41 196 151 255
234 59 83 91 149 122 253 23 75 27 107 27 218 1 187 -40 327 -140 478 -243
368 -724 491 -1112 286 -163 -87 -271 -200 -357 -374 -198 -403 -151 -916 137
-1485 166 -330 392 -637 707 -964 538 -557 958 -1046 1020 -1184 20 -46 32
-45 32 1 0 46 48 251 86 367 47 143 149 349 221 445 150 202 340 312 491 283
101 -18 185 -102 218 -216 31 -104 4 -259 -58 -341 -30 -39 -23 -88 17 -128
34 -34 38 -35 91 -31 74 6 109 39 109 103 0 35 -6 50 -26 71 -31 31 -103 43
-139 24 -12 -7 -20 -7 -16 -2 3 6 22 16 42 22 120 40 229 -91 164 -198 -37
-61 -118 -89 -173 -61 -12 6 -34 23 -49 37 -26 24 -28 24 -28 6 -3 -137 -64
-226 -215 -312 -93 -53 -203 -159 -254 -245 -41 -69 -86 -199 -100 -287 -21
-127 -14 -265 23 -457 90 -467 95 -665 26 -1053 -11 -57 -18 -105 -16 -107 1
-1 34 37 73 85 86 105 308 325 418 412 268 213 562 358 852 422 132 29 398 32
520 5 333 -72 500 -202 511 -399 2 -37 -1 -83 -8 -103 -15 -47 -72 -111 -120
-135 -90 -46 -242 -50 -397 -11 -184 47 -254 55 -438 55 -204 1 -324 -18 -513
-80 -208 -67 -498 -229 -683 -380 -178 -146 -337 -346 -457 -577 -196 -378
-427 -692 -740 -1007 -151 -151 -152 -152 -32 -25 331 351 544 647 739 1025
122 235 164 295 325 455 263 262 593 470 901 568 172 54 228 62 450 62 216 -1
284 -9 514 -66 171 -42 243 -32 329 45 56 51 86 125 79 196 -16 184 -195 303
-532 357 -121 19 -371 13 -485 -12 -247 -54 -481 -167 -730 -354 -114 -85
-395 -355 -537 -515 l-71 -80 19 85 c28 133 49 342 49 499 0 183 -21 367 -68
590 -34 165 -36 186 -37 365 0 154 4 202 18 255 48 171 154 310 321 421 162
108 209 169 210 272 1 52 -2 61 -27 83 -15 13 -38 24 -49 24 -17 0 -13 6 19
29 52 38 108 104 135 160 32 67 31 167 -3 241 -77 167 -215 219 -373 141 -134
-66 -299 -262 -402 -479 -84 -175 -149 -408 -169 -603 l-7 -67 -65 97 c-189
277 -382 496 -898 1022 -476 484 -650 684 -830 954 -286 427 -415 833 -415
1305 -1 166 8 259 35 380 102 443 399 781 813 924 173 60 300 80 502 80 191
-1 308 -19 452 -70 434 -155 754 -561 868 -1100 103 -491 -73 -964 -455 -1224
-262 -177 -584 -259 -856 -216 -58 9 -112 14 -121 11 -28 -11 -38 -50 -21 -75
16 -22 20 -23 124 -17 686 40 1186 361 1368 880 66 189 93 409 72 583 -106
859 -694 1355 -1565 1321 -396 -15 -743 -165 -1015 -438 -205 -205 -337 -450
-397 -734 -26 -122 -26 -478 -1 -640 95 -603 331 -1059 919 -1768 l110 -132
-163 169 c-302 312 -531 606 -720 923 -511 858 -549 1624 -112 2283 136 206
322 402 504 533 113 80 319 186 446 226 557 180 1216 58 1816 -336 402 -264
752 -669 816 -943 11 -47 25 -123 32 -169 8 -50 20 -93 32 -107 25 -33 71 -32
93 1 15 23 15 29 -1 78 -18 56 -121 257 -165 322 -15 22 -49 78 -76 123 -221
376 -701 766 -1193 967 -823 337 -1611 172 -2148 -450 -274 -316 -426 -650
-474 -1035 -14 -116 -6 -368 16 -500 75 -445 300 -924 672 -1424 79 -108 75
-104 -128 121 -576 636 -816 1197 -785 1842 34 719 356 1278 954 1654 410 258
1014 427 1524 427 243 0 454 -35 715 -120 129 -42 153 -46 183 -30 48 26 48
86 -1 121 -48 34 -160 48 -509 65 -347 16 -494 14 -695 -11 -66 -8 -120 -13
-122 -11 -2 2 9 11 24 21 49 33 125 109 169 171 168 235 193 544 65 809 -95
198 -255 339 -466 411 -111 37 -303 44 -415 14z m-1103 -6351 c-95 -78 -113
-219 -41 -325 24 -35 24 -37 4 -19 -86 78 -86 253 2 331 22 20 58 43 68 44 2
0 -12 -14 -33 -31z m2064 -3872 c-10 -9 -11 -8 -5 6 3 10 9 15 12 12 3 -3 0
-11 -7 -18z"/>
<path d="M839 11402 c-114 -30 -220 -115 -272 -219 -14 -26 -32 -83 -42 -126
-16 -72 -16 -79 -1 -102 30 -46 106 -23 106 32 0 27 -31 53 -65 53 -26 0 -27
2 -22 35 18 109 115 233 225 287 56 28 78 33 157 36 76 4 105 0 158 -17 303
-101 400 -473 186 -711 -345 -382 -548 -814 -598 -1272 -43 -392 35 -898 203
-1301 213 -513 646 -1076 1174 -1525 40 -34 71 -62 69 -62 -2 0 -39 13 -83 29
-43 16 -133 41 -199 57 -103 24 -142 28 -275 28 -133 1 -165 -2 -225 -21 -123
-39 -208 -110 -263 -223 -24 -50 -27 -66 -27 -165 0 -102 2 -114 29 -168 33
-64 112 -144 174 -176 104 -53 274 -66 402 -30 193 53 466 73 619 44 242 -46
545 -201 714 -364 65 -63 177 -192 177 -204 0 -3 -30 8 -67 25 -121 54 -255
79 -465 85 -204 6 -293 -2 -447 -43 -102 -26 -251 -92 -325 -143 -72 -50 -164
-139 -212 -206 -60 -85 -145 -269 -115 -251 6 4 11 13 11 19 0 21 67 154 108
214 45 66 144 164 215 212 264 180 704 241 1077 150 90 -22 202 -69 232 -96
35 -32 20 12 -25 73 -116 157 -255 275 -445 380 -179 99 -346 155 -523 176
-80 9 -122 8 -245 -7 -82 -9 -192 -28 -244 -41 -126 -33 -200 -39 -290 -25
-130 20 -222 74 -284 164 -97 144 -83 342 34 470 78 86 175 127 335 142 166
16 485 -49 646 -131 28 -14 53 -24 55 -21 2 2 -51 51 -118 109 -337 289 -611
588 -835 908 -227 324 -392 674 -472 1000 -200 816 -57 1497 436 2086 142 170
150 181 173 241 97 259 -70 552 -344 602 -78 14 -108 13 -187 -7z"/>
<path d="M4962 11374 c-43 -30 -17 -104 36 -104 27 0 62 33 62 59 0 20 -43 61
-64 61 -6 0 -22 -7 -34 -16z"/>
<path d="M3660 10460 c-26 -26 -25 -52 3 -78 28 -26 45 -27 75 -6 44 31 16
104 -40 104 -10 0 -27 -9 -38 -20z"/>
<path d="M2685 7645 c-49 -48 -16 -125 52 -125 37 0 73 38 73 77 0 32 -42 73
-75 73 -14 0 -37 -11 -50 -25z"/>
<path d="M2292 5684 c-43 -30 -17 -104 36 -104 27 0 62 33 62 59 0 20 -43 61
-64 61 -6 0 -22 -7 -34 -16z"/>
<path d="M6073 5351 c-137 -35 -244 -171 -243 -310 1 -102 85 -251 142 -251
34 0 54 31 38 60 -13 24 -68 28 -77 5 -5 -14 -7 -14 -23 0 -36 32 -64 116 -64
190 0 58 5 81 27 128 64 129 209 198 346 163 147 -38 235 -152 234 -303 -1
-87 -38 -158 -128 -248 -124 -125 -288 -187 -590 -226 -185 -23 -282 -46 -409
-96 -274 -108 -586 -312 -833 -546 -70 -66 -76 -70 -69 -42 3 17 9 84 13 150
6 134 -5 253 -42 445 -35 182 -47 339 -35 451 26 255 123 389 280 389 126 0
220 -95 220 -222 0 -71 -74 -167 -141 -183 -22 -6 -27 -3 -33 18 -7 30 -38 40
-65 20 -25 -17 -27 -45 -6 -63 29 -24 154 20 202 72 75 80 70 220 -12 304 -77
80 -200 93 -293 30 -155 -105 -208 -384 -142 -751 51 -282 53 -302 53 -455 -1
-105 -5 -172 -15 -207 -8 -29 -13 -53 -10 -53 3 0 44 35 91 78 229 209 461
372 686 482 220 107 316 135 615 175 338 44 548 160 646 353 25 49 29 68 29
137 -1 67 -5 89 -28 132 -36 69 -88 120 -155 151 -58 26 -154 37 -209 23z"/>
<path d="M5007 3520 c-204 -35 -398 -143 -591 -329 -167 -163 -236 -256 -336
-458 -48 -98 -118 -225 -155 -283 -281 -441 -770 -931 -1287 -1290 -43 -29
-76 -55 -73 -58 2 -2 48 26 102 63 212 146 446 341 655 543 355 345 593 661
769 1018 74 150 103 197 171 280 166 200 318 329 491 414 119 59 223 87 351
96 163 11 301 -22 419 -102 286 -195 320 -619 69 -872 -191 -193 -484 -234
-710 -99 -48 29 -107 101 -151 184 -15 30 -49 39 -69 19 -14 -13 -14 -19 -2
-41 13 -24 139 -135 153 -135 3 0 25 -13 49 -28 101 -67 230 -99 357 -89 147
12 264 68 377 181 124 124 178 254 177 426 0 158 -54 284 -172 400 -86 86
-169 132 -278 155 -73 16 -237 18 -316 5z"/>
<path d="M2536 1092 c-2 -4 15 -13 38 -20 82 -22 145 -101 146 -182 0 -48 -38
-121 -75 -142 -17 -9 -50 -20 -74 -24 -41 -7 -43 -6 -36 15 4 15 1 29 -11 42
-30 33 -74 18 -74 -26 0 -34 20 -45 85 -45 45 0 74 6 105 23 106 56 121 219
28 303 -40 37 -122 72 -132 56z"/>
</g>
</svg>
