<?xml version="1.0" standalone="no"?>
<!DOCTYPE svg PUBLIC "-//W3C//DTD SVG 20010904//EN"
 "http://www.w3.org/TR/2001/REC-SVG-20010904/DTD/svg10.dtd">
<svg version="1.0" xmlns="http://www.w3.org/2000/svg"
 width="1280.000000pt" height="1045.000000pt" viewBox="0 0 1280.000000 1045.000000"
 preserveAspectRatio="xMidYMid meet">
<metadata>
Created by potrace 1.15, written by Peter Selinger 2001-2017
</metadata>
<g transform="translate(0.000000,1045.000000) scale(0.100000,-0.100000)"
fill="#000000" stroke="none">
<path d="M6294 10246 c-56 -99 -459 -815 -896 -1591 -437 -775 -898 -1594
-1024 -1819 -144 -256 -236 -411 -249 -417 -15 -6 -16 -8 -4 -8 20 -1 38 19
78 92 35 62 45 72 29 29 -10 -25 -4 -37 54 -127 63 -98 96 -150 189 -297 43
-69 132 -209 204 -323 18 -27 87 -137 154 -244 l122 -194 -12 -48 -13 -49
-230 -3 -231 -2 236 -3 236 -2 10 43 c5 23 134 479 286 1012 263 926 740 2609
1032 3644 75 266 135 484 133 486 -2 1 -49 -79 -104 -179z m-1337 -4878 c-3
-8 -6 -5 -6 6 -1 11 2 17 5 13 3 -3 4 -12 1 -19z"/>
<path d="M6410 10395 c0 -5 5 -17 10 -25 5 -8 10 -10 10 -5 0 6 -5 17 -10 25
-5 8 -10 11 -10 5z"/>
<path d="M6369 10262 c-15 -53 -131 -472 -258 -930 -128 -459 -231 -836 -229
-838 3 -2 26 73 53 166 26 94 50 168 53 166 2 -3 -1 -19 -7 -36 -8 -24 -7 -56
4 -128 7 -54 37 -259 65 -457 28 -198 73 -513 100 -700 27 -187 72 -502 100
-700 28 -198 71 -497 96 -665 24 -168 49 -341 55 -385 5 -44 12 -96 15 -115 2
-19 20 -141 39 -270 19 -129 40 -271 46 -315 16 -121 17 -133 54 -381 19 -127
39 -267 44 -310 15 -109 16 -114 60 -424 97 -669 126 -878 142 -994 5 -43 25
-183 44 -310 39 -263 41 -280 56 -396 6 -47 15 -102 20 -123 8 -31 4 -57 -21
-153 -17 -64 -30 -118 -28 -120 5 -4 53 170 585 2090 200 725 365 1326 366
1335 1 19 -1412 5072 -1422 5083 -4 4 -18 -36 -32 -90z m568 -8154 c-3 -8 -6
-5 -6 6 -1 11 2 17 5 13 3 -3 4 -12 1 -19z"/>
<path d="M5861 8434 c0 -11 3 -14 6 -6 3 7 2 16 -1 19 -3 4 -6 -2 -5 -13z"/>
<path d="M4055 6400 c-13 -5 -14 -9 -5 -9 8 0 24 4 35 9 13 5 14 9 5 9 -8 0
-24 -4 -35 -9z"/>
<path d="M3985 6380 c-13 -5 -14 -9 -5 -9 8 0 24 4 35 9 13 5 14 9 5 9 -8 0
-24 -4 -35 -9z"/>
<path d="M10728 5843 c7 -3 16 -2 19 1 4 3 -2 6 -13 5 -11 0 -14 -3 -6 -6z"/>
<path d="M10798 5823 c7 -3 16 -2 19 1 4 3 -2 6 -13 5 -11 0 -14 -3 -6 -6z"/>
<path d="M10875 5800 c11 -5 27 -9 35 -9 9 0 8 4 -5 9 -11 5 -27 9 -35 9 -9 0
-8 -4 5 -9z"/>
<path d="M11015 5760 c50 -16 95 -30 101 -30 6 0 11 -6 11 -13 0 -12 39 -77
178 -292 28 -44 57 -90 64 -103 7 -13 22 -27 34 -32 17 -7 8 -9 -38 -11 -33
-1 -67 0 -75 1 -11 1 -12 -2 -4 -9 7 -8 226 -10 749 -9 l740 3 -900 258 c-897
257 -1031 294 -860 237z m142 -46 c-3 -3 -12 -4 -19 -1 -8 3 -5 6 6 6 11 1 17
-2 13 -5z"/>
<path d="M58 5243 c6 -2 18 -2 25 0 6 3 1 5 -13 5 -14 0 -19 -2 -12 -5z"/>
<path d="M10308 5213 c-2323 -3 -2448 -4 -2447 -21 0 -10 3 -12 6 -4 3 9 51
12 196 10 106 -1 164 -3 130 -5 l-62 -4 56 -87 c30 -48 65 -103 77 -122 73
-113 112 -176 121 -192 9 -16 236 -376 330 -523 18 -27 48 -76 68 -107 21 -33
44 -58 54 -59 10 0 -11 -11 -47 -24 -36 -13 -60 -24 -54 -24 10 -1 1147 324
3110 890 496 142 906 259 912 259 6 0 14 5 17 10 3 6 0 9 -7 8 -7 -2 -1114 -4
-2460 -5z m-1421 -1109 c-3 -3 -12 -4 -19 -1 -8 3 -5 6 6 6 11 1 17 -2 13 -5z"/>
<path d="M48 5183 c7 -3 16 -2 19 1 4 3 -2 6 -13 5 -11 0 -14 -3 -6 -6z"/>
<path d="M1562 5183 l177 -3 31 -53 c17 -28 43 -71 58 -94 15 -23 45 -71 66
-105 22 -35 58 -92 81 -128 23 -36 60 -93 81 -127 21 -35 45 -63 53 -63 8 0
12 -2 9 -5 -3 -3 -56 8 -118 25 -61 17 -114 30 -116 28 -2 -2 484 -145 1079
-317 595 -173 1104 -321 1132 -330 l49 -16 1125 -1982 c619 -1090 1126 -1981
1127 -1980 2 1 -299 1064 -667 2362 -368 1298 -697 2458 -730 2578 l-61 217
-1777 -2 c-977 -1 -1696 -4 -1599 -5z m608 -593 c18 -12 2 -12 -25 0 -13 6
-15 9 -5 9 8 0 22 -4 30 -9z"/>
<path d="M7851 5154 c0 -11 3 -14 6 -6 3 7 2 16 -1 19 -3 4 -6 -2 -5 -13z"/>
<path d="M1678 4713 c7 -3 16 -2 19 1 4 3 -2 6 -13 5 -11 0 -14 -3 -6 -6z"/>
<path d="M1748 4693 c7 -3 16 -2 19 1 4 3 -2 6 -13 5 -11 0 -14 -3 -6 -6z"/>
<path d="M1825 4670 c11 -5 27 -9 35 -9 9 0 8 4 -5 9 -11 5 -27 9 -35 9 -9 0
-8 -4 5 -9z"/>
<path d="M8674 4040 c-12 -5 -26 -15 -30 -22 -6 -10 -5 -10 7 -2 8 6 28 16 44
22 17 6 23 10 15 11 -8 0 -25 -4 -36 -9z"/>
<path d="M8615 3970 c-9 -16 -13 -30 -11 -30 3 0 12 14 21 30 9 17 13 30 11
30 -3 0 -12 -13 -21 -30z"/>
<path d="M6861 1814 c0 -11 3 -14 6 -6 3 7 2 16 -1 19 -3 4 -6 -2 -5 -13z"/>
<path d="M6841 1744 c0 -11 3 -14 6 -6 3 7 2 16 -1 19 -3 4 -6 -2 -5 -13z"/>
<path d="M6831 1704 c0 -11 3 -14 6 -6 3 7 2 16 -1 19 -3 4 -6 -2 -5 -13z"/>
</g>
</svg>
