<?xml version="1.0" standalone="no"?>
<!DOCTYPE svg PUBLIC "-//W3C//DTD SVG 20010904//EN"
 "http://www.w3.org/TR/2001/REC-SVG-20010904/DTD/svg10.dtd">
<svg version="1.0" xmlns="http://www.w3.org/2000/svg"
 width="1280.000000pt" height="742.000000pt" viewBox="0 0 1280.000000 742.000000"
 preserveAspectRatio="xMidYMid meet">
<metadata>
Created by potrace 1.15, written by Peter Selinger 2001-2017
</metadata>
<g transform="translate(0.000000,742.000000) scale(0.100000,-0.100000)"
fill="#000000" stroke="none">
<path d="M5725 7410 c-161 -26 -324 -89 -472 -185 -116 -75 -280 -242 -352
-358 -148 -240 -214 -517 -197 -822 l7 -120 -59 120 c-103 209 -218 371 -386
544 -128 131 -231 217 -366 305 -98 65 -230 141 -230 133 0 -2 38 -27 85 -56
190 -116 372 -276 553 -486 226 -263 399 -605 446 -881 62 -369 89 -871 67
-1239 -22 -373 -26 -392 -50 -252 -16 95 -83 323 -130 443 -166 425 -423 729
-756 894 -205 102 -388 139 -591 119 -275 -26 -503 -150 -649 -354 -165 -231
-190 -503 -68 -754 82 -170 247 -307 433 -357 87 -23 243 -23 329 0 178 48
326 167 405 324 15 30 26 56 24 57 -2 2 -19 -26 -38 -63 -49 -96 -163 -207
-260 -254 -257 -126 -541 -78 -745 126 -134 134 -195 283 -195 475 0 123 19
203 76 320 40 82 59 108 143 190 98 98 166 145 269 187 126 51 177 59 357 59
147 0 182 -3 255 -23 120 -33 216 -75 319 -140 237 -150 416 -358 556 -647
260 -536 323 -1217 171 -1841 -134 -547 -466 -1094 -855 -1407 -435 -350 -916
-827 -1179 -1168 -10 -14 -5 -22 35 -53 26 -20 50 -35 53 -34 4 2 54 59 111
128 513 619 1166 1184 1844 1598 104 63 180 88 384 126 253 48 616 61 844 31
303 -40 536 -104 742 -206 55 -27 91 -42 80 -34 -34 26 -206 111 -304 149
-364 143 -852 182 -1318 105 -67 -11 -136 -24 -154 -29 -57 -17 -43 -3 53 50
416 229 1076 512 1278 547 121 21 420 13 548 -16 206 -46 411 -136 579 -254
113 -80 291 -257 372 -372 71 -101 167 -292 205 -405 58 -179 71 -269 71 -500
-1 -197 -3 -224 -27 -327 -51 -213 -134 -376 -262 -510 -191 -202 -442 -284
-680 -223 -98 25 -165 61 -238 129 -115 106 -163 224 -156 380 4 83 10 106 40
171 42 90 91 148 167 199 203 136 447 128 585 -19 62 -66 88 -127 89 -204 1
-266 -321 -371 -467 -152 -14 21 -26 34 -26 28 0 -23 68 -98 115 -127 43 -26
57 -30 124 -30 66 0 83 4 130 30 105 58 167 189 143 302 -16 77 -49 137 -103
188 -182 170 -491 150 -690 -45 -210 -207 -210 -530 1 -741 187 -187 487 -230
749 -108 538 250 733 1076 415 1758 -128 274 -350 524 -607 683 -220 137 -452
214 -727 240 l-125 12 85 23 c523 145 993 230 1483 268 106 8 415 22 687 30
797 24 1039 47 1405 130 176 40 399 54 547 36 421 -54 766 -333 911 -738 39
-108 57 -221 57 -360 0 -314 -113 -580 -338 -795 -94 -90 -175 -146 -285 -198
-596 -284 -1311 35 -1485 662 -13 48 -17 100 -16 213 0 133 3 159 26 227 40
121 92 203 187 298 95 95 187 147 303 175 75 17 186 19 260 4 91 -19 213 -84
277 -148 110 -110 155 -220 156 -380 0 -107 12 -95 14 14 2 143 -53 270 -169
385 -125 126 -263 177 -450 167 -413 -23 -714 -427 -649 -872 48 -333 274
-632 594 -786 649 -313 1419 46 1601 748 32 122 43 341 24 460 -40 252 -149
470 -324 647 -207 211 -463 327 -756 344 l-115 7 60 24 c93 38 270 128 357
182 404 250 678 616 770 1029 19 88 23 132 22 270 0 144 -4 178 -26 267 -111
432 -396 727 -793 819 -105 24 -311 25 -408 1 -314 -77 -553 -303 -639 -602
-32 -113 -32 -297 0 -408 52 -181 166 -335 319 -431 67 -41 64 -30 -3 14 -133
86 -255 251 -298 401 -94 325 40 682 327 873 154 102 302 146 492 146 168 0
290 -30 443 -109 269 -140 461 -409 534 -746 20 -96 17 -373 -6 -470 -65 -277
-190 -505 -394 -717 -167 -172 -319 -280 -567 -399 -344 -165 -710 -251 -1234
-289 -80 -6 -406 -17 -725 -25 -529 -13 -801 -26 -896 -40 -24 -4 9 16 101 63
237 119 407 240 592 421 156 152 301 342 377 492 30 60 22 50 -51 -61 -83
-127 -156 -214 -280 -337 -212 -209 -419 -359 -654 -473 -197 -96 -291 -125
-490 -156 -621 -94 -1316 -292 -1858 -530 l-98 -43 110 115 c337 347 551 789
585 1209 5 65 4 63 -13 -30 -48 -261 -137 -490 -294 -750 -136 -226 -292 -403
-511 -578 -33 -26 -139 -87 -235 -136 -276 -138 -535 -288 -766 -441 -136 -91
-133 -89 -110 -54 139 207 220 347 288 499 185 414 267 827 255 1286 -3 109
-2 197 1 194 8 -4 24 112 47 340 21 200 29 682 15 905 -13 214 -20 273 -68
625 -43 316 -51 576 -20 728 94 464 416 807 859 914 111 27 365 25 476 -5 418
-110 702 -438 741 -857 37 -391 -175 -770 -533 -950 -380 -191 -811 -100
-1014 213 -59 92 -83 169 -89 289 -5 85 -2 112 17 175 50 169 160 285 320 338
53 18 82 21 155 18 138 -6 239 -62 307 -167 15 -25 28 -40 28 -34 0 22 -80
116 -126 149 -120 86 -296 92 -451 17 -77 -37 -180 -140 -221 -221 -161 -324
9 -718 376 -867 208 -85 486 -70 712 38 253 121 455 347 538 602 42 131 56
236 49 379 -14 277 -118 501 -322 694 -140 132 -295 216 -486 262 -97 24 -320
34 -414 20z"/>
<path d="M3662 7370 c-40 -64 -40 -130 -2 -217 21 -48 68 -113 81 -113 5 0 9
17 9 38 0 51 -37 255 -54 295 l-13 32 -21 -35z"/>
<path d="M3720 7347 c19 -53 33 -128 46 -242 l7 -60 20 45 c27 59 28 161 3
210 -19 36 -74 100 -87 100 -4 0 1 -24 11 -53z"/>
<path d="M3330 7283 c0 -4 20 -19 44 -31 24 -13 79 -52 123 -87 43 -35 79 -62
81 -60 7 6 -29 65 -60 100 -17 20 -47 44 -67 54 -41 21 -121 37 -121 24z"/>
<path d="M3310 7260 c0 -19 38 -85 62 -107 35 -32 128 -73 168 -72 l35 0 -45
40 c-45 40 -201 149 -214 149 -3 0 -6 -5 -6 -10z"/>
<path d="M3511 6945 c-63 -18 -114 -54 -141 -98 -11 -17 -18 -32 -17 -34 9 -9
326 103 345 122 22 22 -118 29 -187 10z"/>
<path d="M3647 6894 c-59 -30 -220 -84 -253 -84 -35 0 -30 -16 7 -24 108 -21
232 24 290 106 25 34 18 34 -44 2z"/>
<path d="M530 6570 c0 -27 3 -30 30 -30 27 0 30 3 30 30 0 27 -3 30 -30 30
-27 0 -30 -3 -30 -30z"/>
<path d="M610 6568 c0 -24 4 -28 30 -28 25 0 30 4 30 24 0 19 -6 25 -30 28
-27 4 -30 2 -30 -24z"/>
<path d="M450 6565 c0 -20 5 -25 25 -25 20 0 25 5 25 25 0 20 -5 25 -25 25
-20 0 -25 -5 -25 -25z"/>
<path d="M180 6518 c0 -37 1 -38 35 -38 33 0 35 2 35 34 0 31 -3 34 -35 38
-35 4 -35 4 -35 -34z"/>
<path d="M610 6495 c0 -20 5 -25 25 -25 20 0 25 5 25 25 0 20 -5 25 -25 25
-20 0 -25 -5 -25 -25z"/>
<path d="M444 6484 c3 -9 6 -25 7 -37 0 -21 1 -21 8 -2 5 11 6 25 4 32 -3 7 3
10 16 6 11 -3 22 -15 24 -27 3 -15 5 -12 6 10 1 29 -1 31 -35 32 -29 1 -35 -2
-30 -14z"/>
<path d="M476 6461 c-4 -7 -5 -15 -2 -18 9 -9 19 4 14 18 -4 11 -6 11 -12 0z"/>
<path d="M0 6400 l0 -60 95 0 95 0 0 60 0 60 -95 0 -95 0 0 -60z"/>
<path d="M570 6450 c0 -5 7 -10 15 -10 8 0 15 5 15 10 0 6 -7 10 -15 10 -8 0
-15 -4 -15 -10z"/>
<path d="M612 6449 c2 -6 8 -10 13 -10 5 0 11 4 13 10 2 6 -4 11 -13 11 -9 0
-15 -5 -13 -11z"/>
<path d="M270 6400 c0 -11 5 -20 11 -20 6 0 9 7 6 14 -4 10 -1 13 9 9 7 -3 14
0 14 6 0 6 -9 11 -20 11 -13 0 -20 -7 -20 -20z"/>
<path d="M321 6404 c0 -11 3 -14 6 -6 3 7 2 16 -1 19 -3 4 -6 -2 -5 -13z"/>
<path d="M301 6374 c0 -11 3 -14 6 -6 3 7 2 16 -1 19 -3 4 -6 -2 -5 -13z"/>
<path d="M7864 6155 c-9 -51 2 -98 39 -152 32 -48 99 -102 105 -85 7 21 -115
272 -133 272 -2 0 -7 -16 -11 -35z"/>
<path d="M7900 6186 c0 -3 14 -27 31 -55 17 -27 46 -86 64 -131 30 -73 33 -78
38 -51 15 71 -31 186 -88 221 -32 20 -45 24 -45 16z"/>
<path d="M12220 6115 c-21 -74 10 -163 79 -229 37 -35 38 -29 12 79 -23 95
-59 195 -70 195 -5 0 -14 -20 -21 -45z"/>
<path d="M12281 6113 c12 -27 31 -93 44 -148 l22 -100 12 40 c23 83 7 157 -46
216 -19 21 -39 39 -44 39 -4 0 1 -21 12 -47z"/>
<path d="M9492 6068 c-7 -7 -12 -18 -12 -25 0 -18 29 -16 37 3 8 21 -10 37
-25 22z"/>
<path d="M8298 6030 c-93 -50 -145 -185 -118 -311 7 -32 16 -59 20 -59 10 0
66 125 99 222 26 78 48 169 39 168 -1 -1 -20 -10 -40 -20z"/>
<path d="M8347 5986 c-8 -55 -56 -194 -91 -263 -14 -29 -26 -55 -26 -58 0 -11
36 14 74 52 77 76 111 200 77 281 -18 43 -27 40 -34 -12z"/>
<path d="M9425 6010 c-9 -28 11 -52 25 -30 6 8 9 21 7 29 -4 23 -25 24 -32 1z"/>
<path d="M9502 5988 c-16 -16 -15 -38 2 -38 18 0 39 27 31 40 -8 13 -18 13
-33 -2z"/>
<path d="M3325 5940 c-3 -5 -4 -14 0 -20 8 -13 35 -1 35 16 0 16 -26 19 -35 4z"/>
<path d="M12639 5936 c-82 -28 -134 -88 -163 -186 -17 -59 -21 -127 -7 -149 6
-10 22 6 61 60 49 70 157 275 149 283 -2 3 -20 -1 -40 -8z"/>
<path d="M3252 5928 c-17 -17 -15 -38 3 -38 16 0 38 34 28 44 -9 9 -18 7 -31
-6z"/>
<path d="M12684 5911 c-14 -48 -93 -198 -137 -261 -25 -35 -44 -66 -42 -68 7
-8 69 32 112 71 61 56 93 122 92 189 0 29 -4 62 -9 73 -8 19 -9 19 -16 -4z"/>
<path d="M3294 5866 c-18 -14 -18 -15 -1 -21 23 -9 47 1 47 20 0 19 -20 19
-46 1z"/>
<path d="M8084 5789 c57 -94 90 -195 111 -334 33 -218 -13 -416 -139 -598
l-47 -69 53 29 c48 26 56 35 96 115 110 222 122 476 32 691 -33 80 -102 197
-131 223 -11 10 0 -16 25 -57z"/>
<path d="M7783 5794 c-13 -3 -23 -8 -23 -12 0 -7 129 -82 209 -122 62 -31 173
-72 178 -66 9 9 -37 73 -83 116 -25 23 -66 51 -92 62 -45 20 -145 31 -189 22z"/>
<path d="M12072 5782 c-22 -15 198 -186 315 -246 l33 -16 -10 24 c-51 136
-155 226 -275 241 -27 3 -56 2 -63 -3z"/>
<path d="M12361 5788 c-1 -3 8 -27 19 -53 73 -171 83 -438 24 -642 -64 -220
-222 -426 -422 -547 -34 -21 -62 -39 -62 -40 0 -4 86 12 115 20 35 11 156 116
217 189 73 87 137 196 174 298 20 54 35 79 49 83 24 8 305 287 305 303 0 6
-15 11 -33 11 -91 0 -193 -69 -245 -166 l-27 -51 -1 151 c-1 121 -5 166 -22
228 -18 67 -89 234 -91 216z"/>
<path d="M7760 5749 c0 -7 11 -31 24 -54 43 -73 135 -121 253 -132 95 -9 111
4 38 31 -79 30 -219 101 -272 138 -24 16 -43 24 -43 17z"/>
<path d="M12055 5730 c11 -50 28 -80 72 -122 50 -49 144 -91 213 -96 l55 -4
-67 40 c-75 45 -171 116 -237 177 l-44 40 8 -35z"/>
<path d="M8466 5524 c-107 -39 -188 -159 -194 -288 l-3 -71 55 59 c60 63 135
168 186 259 36 64 31 69 -44 41z"/>
<path d="M8532 5488 c-18 -51 -102 -175 -171 -255 -34 -40 -57 -73 -51 -73 25
0 116 55 160 96 71 66 105 150 93 227 -7 46 -15 47 -31 5z"/>
<path d="M7861 5335 c59 -82 251 -285 269 -285 26 0 13 106 -21 177 -45 93
-156 173 -263 188 l-48 8 63 -88z"/>
<path d="M12040 5415 c0 -3 21 -47 46 -98 49 -96 122 -212 182 -285 31 -37 37
-41 45 -26 5 9 7 51 5 93 -7 108 -51 189 -140 255 -37 27 -138 72 -138 61z"/>
<path d="M7776 5378 c-19 -71 12 -151 84 -219 50 -47 150 -102 207 -114 28 -5
20 6 -80 108 -62 63 -130 143 -152 180 -22 36 -43 66 -46 67 -4 0 -9 -10 -13
-22z"/>
<path d="M12001 5369 c-38 -109 39 -252 180 -336 92 -54 97 -52 45 16 -74 95
-154 228 -177 293 -12 32 -25 58 -29 58 -5 0 -13 -14 -19 -31z"/>
<path d="M12754 5339 c-50 -65 -161 -177 -226 -227 -26 -20 -46 -37 -44 -39
10 -10 123 29 173 59 90 54 149 150 141 229 l-3 33 -41 -55z"/>
<path d="M5293 5274 c-8 -20 13 -42 27 -28 12 12 3 44 -11 44 -5 0 -12 -7 -16
-16z"/>
<path d="M5260 5201 c0 -22 25 -39 38 -27 8 8 -10 38 -26 44 -7 2 -12 -6 -12
-17z"/>
<path d="M5347 5213 c-4 -3 -7 -15 -7 -25 0 -22 26 -24 34 -2 10 25 -10 45
-27 27z"/>
<path d="M3781 4543 c-1 -6 -4 -20 -7 -30 -5 -17 -5 -17 6 0 6 10 9 23 6 30
-3 9 -5 9 -5 0z"/>
<path d="M9152 4469 c-64 -32 -113 -105 -127 -186 -4 -25 -3 -43 3 -43 12 0
82 84 142 171 28 40 50 68 50 62 0 -15 -71 -121 -123 -183 -25 -30 -44 -56
-42 -58 13 -13 135 81 157 122 30 55 27 136 -4 136 -7 0 -32 -10 -56 -21z"/>
<path d="M10320 4420 c8 -5 20 -10 25 -10 6 0 3 5 -5 10 -8 5 -19 10 -25 10
-5 0 -3 -5 5 -10z"/>
<path d="M8741 4369 c27 -70 76 -165 112 -218 30 -44 30 -44 39 -20 21 55 -14
177 -67 233 -23 23 -80 56 -99 56 -2 0 5 -23 15 -51z"/>
<path d="M8696 4378 c-18 -69 16 -160 82 -220 37 -34 82 -64 82 -55 0 2 -22
41 -49 86 -27 45 -60 111 -73 146 -12 36 -26 65 -29 65 -4 0 -9 -10 -13 -22z"/>
<path d="M6274 4247 c-48 -41 -78 -119 -71 -188 3 -31 10 -65 15 -76 10 -16
12 -14 26 19 23 53 68 234 64 254 -3 14 -8 13 -34 -9z"/>
<path d="M6312 4190 c-7 -38 -23 -103 -37 -142 -14 -39 -23 -73 -21 -75 2 -2
20 15 40 39 60 70 80 181 42 233 -10 14 -14 4 -24 -55z"/>
<path d="M7052 4243 c2 -10 10 -18 18 -18 8 0 16 8 18 18 2 12 -3 17 -18 17
-15 0 -20 -5 -18 -17z"/>
<path d="M7016 4191 c-9 -14 4 -41 21 -41 9 0 13 8 11 22 -3 23 -23 35 -32 19z"/>
<path d="M7102 4188 c-18 -18 -15 -40 6 -36 9 2 18 13 20 26 4 24 -7 29 -26
10z"/>
<path d="M9123 4169 c-56 -21 -150 -98 -121 -99 63 -1 378 70 378 86 0 3 -16
12 -35 20 -49 20 -159 17 -222 -7z"/>
<path d="M9359 4129 c-31 -17 -214 -58 -288 -65 -71 -7 -73 -8 -47 -21 15 -8
58 -17 95 -20 92 -8 169 15 224 67 41 37 49 58 16 39z"/>
<path d="M5880 4039 c0 -24 255 -248 268 -235 7 7 -19 78 -44 117 -26 43 -78
87 -119 104 -39 16 -105 25 -105 14z"/>
<path d="M10913 4034 c-8 -21 13 -42 28 -27 13 13 5 43 -11 43 -6 0 -13 -7
-17 -16z"/>
<path d="M5870 3996 c0 -70 72 -150 167 -186 96 -36 100 -25 14 40 -44 34
-103 86 -131 117 -48 55 -50 56 -50 29z"/>
<path d="M6445 4000 c-63 -25 -120 -71 -156 -129 -50 -79 -37 -80 86 -10 135
77 220 140 204 150 -23 14 -81 9 -134 -11z"/>
<path d="M6520 3933 c-41 -30 -113 -75 -160 -99 l-85 -45 66 4 c112 7 211 67
243 148 9 23 16 43 14 44 -2 2 -37 -22 -78 -52z"/>
<path d="M10883 3964 c-8 -20 13 -42 27 -28 12 12 3 44 -11 44 -5 0 -12 -7
-16 -16z"/>
<path d="M10960 3961 c0 -24 18 -37 31 -24 13 13 1 43 -17 43 -8 0 -14 -9 -14
-19z"/>
<path d="M12624 3906 c-9 -24 12 -44 28 -28 10 10 8 16 -5 29 -15 15 -17 15
-23 -1z"/>
<path d="M12692 3845 c2 -14 8 -26 13 -26 6 0 11 12 13 26 2 18 -1 25 -13 25
-12 0 -15 -7 -13 -25z"/>
<path d="M12610 3828 c0 -16 19 -38 33 -38 4 0 7 10 5 22 -3 25 -38 39 -38 16z"/>
<path d="M3450 2805 c0 -18 24 -30 40 -20 8 5 8 11 -1 21 -15 19 -39 18 -39
-1z"/>
<path d="M3534 2786 c-6 -17 11 -46 28 -46 14 0 5 53 -9 58 -7 2 -16 -4 -19
-12z"/>
<path d="M3465 2741 c-6 -10 21 -41 35 -41 17 0 20 19 4 34 -18 18 -30 20 -39
7z"/>
<path d="M8910 2281 c0 -11 4 -22 9 -25 12 -8 34 21 26 34 -11 17 -35 11 -35
-9z"/>
<path d="M8874 2225 c-8 -20 16 -49 29 -36 11 11 0 51 -14 51 -5 0 -12 -7 -15
-15z"/>
<path d="M8960 2225 c-7 -8 -9 -22 -6 -31 5 -13 9 -14 21 -4 17 14 20 36 6 44
-5 3 -14 -1 -21 -9z"/>
<path d="M10761 2093 c-1 -6 -4 -20 -7 -30 -5 -17 -5 -17 6 0 6 10 9 23 6 30
-3 9 -5 9 -5 0z"/>
<path d="M6922 2025 c-63 -14 -124 -44 -172 -84 -24 -19 -21 -19 52 4 43 14
127 35 188 47 60 12 104 26 97 29 -27 16 -106 17 -165 4z"/>
<path d="M7015 1984 c-77 -15 -164 -37 -240 -61 -41 -13 -46 -18 -30 -24 34
-13 168 -10 219 6 54 17 103 45 131 75 21 24 19 24 -80 4z"/>
<path d="M6631 1805 c-7 -22 -15 -87 -18 -145 l-6 -105 32 29 c65 62 78 174
26 233 l-23 27 -11 -39z"/>
<path d="M6593 1807 c-60 -65 -74 -160 -32 -218 l24 -34 6 90 c4 50 12 110 19
134 14 52 10 58 -17 28z"/>
<path d="M6928 1785 c51 -18 107 -43 125 -54 40 -26 28 -27 -21 -2 -20 10 -76
33 -124 50 -97 34 -111 27 -55 -27 56 -55 177 -81 223 -48 19 14 19 15 -2 43
-33 46 -98 73 -174 73 l-65 -1 93 -34z"/>
<path d="M5056 1398 c-7 -67 -7 -160 2 -218 l7 -45 19 28 c27 40 45 97 45 142
1 43 -26 112 -51 133 -13 10 -16 5 -22 -40z"/>
<path d="M5012 1401 c-28 -50 -29 -139 -3 -197 10 -23 23 -44 27 -47 5 -3 9
60 9 139 0 79 -3 144 -6 144 -3 0 -15 -17 -27 -39z"/>
<path d="M4711 1128 c15 -29 247 -261 275 -276 21 -11 21 -10 13 34 -20 108
-115 220 -210 248 -29 9 -61 16 -71 16 -16 0 -17 -3 -7 -22z"/>
<path d="M4690 1089 c0 -110 123 -230 261 -255 l34 -6 -35 28 c-69 55 -173
160 -216 217 l-44 59 0 -43z"/>
<path d="M5295 1111 c-78 -19 -149 -84 -189 -171 -27 -61 -41 -140 -24 -140
27 0 268 283 268 314 0 7 -15 6 -55 -3z"/>
<path d="M5316 1030 c-26 -40 -87 -113 -135 -163 -91 -95 -90 -99 14 -53 63
29 138 103 160 159 9 24 15 63 13 87 l-3 43 -49 -73z"/>
<path d="M5041 1033 c-18 -91 -14 -268 9 -356 43 -170 113 -291 239 -417 103
-103 162 -140 220 -140 l46 0 -45 27 c-167 99 -305 250 -376 409 -14 31 -39
109 -55 173 -28 105 -30 127 -27 239 2 67 3 122 2 122 -1 0 -6 -26 -13 -57z"/>
<path d="M9935 1056 c-39 -17 -84 -63 -100 -101 -18 -44 -29 -115 -17 -115 13
0 103 123 131 178 13 24 25 42 27 39 10 -10 -28 -74 -126 -211 -26 -37 70 26
105 69 25 30 30 45 30 92 0 31 -4 57 -10 59 -5 2 -23 -3 -40 -10z"/>
<path d="M5832 978 c2 -12 11 -24 21 -26 14 -3 18 1 15 20 -2 12 -11 24 -21
26 -14 3 -18 -1 -15 -20z"/>
<path d="M5753 974 c-7 -18 11 -39 26 -30 17 11 13 46 -4 46 -9 0 -18 -7 -22
-16z"/>
<path d="M11830 955 c-10 -13 -11 -18 -1 -28 10 -9 15 -8 26 7 23 31 -1 50
-25 21z"/>
<path d="M11908 948 c-7 -19 2 -38 19 -38 9 0 13 8 11 22 -3 25 -23 35 -30 16z"/>
<path d="M9584 849 c8 -97 18 -163 37 -231 8 -33 13 -37 25 -28 20 17 44 105
44 162 0 76 -39 150 -94 180 -18 10 -18 6 -12 -83z"/>
<path d="M5804 916 c-7 -19 3 -36 22 -36 10 0 14 8 12 22 -4 26 -26 36 -34 14z"/>
<path d="M9543 904 c-60 -84 -38 -232 46 -308 25 -23 25 -21 5 58 -9 33 -19
111 -23 171 l-6 110 -22 -31z"/>
<path d="M11866 893 c-12 -12 -6 -43 9 -43 8 0 15 9 15 19 0 21 -13 34 -24 24z"/>
<path d="M5423 741 c-98 -71 -143 -159 -142 -275 0 -63 25 -146 45 -153 16 -5
80 150 109 262 23 91 41 195 32 195 -2 0 -22 -13 -44 -29z"/>
<path d="M9748 705 c-47 -80 -119 -158 -215 -235 -142 -114 -321 -184 -509
-198 l-99 -8 40 -18 c31 -14 54 -16 101 -12 232 23 480 157 610 330 43 57 119
194 112 201 -2 2 -20 -25 -40 -60z"/>
<path d="M5490 739 c-1 -79 -86 -370 -123 -416 -6 -9 -6 -13 1 -13 24 0 121
109 151 169 41 80 49 146 27 205 -9 24 -26 52 -36 61 -19 18 -20 17 -20 -6z"/>
<path d="M9250 710 c-106 -56 -147 -188 -103 -331 l17 -54 13 65 c24 111 54
202 89 273 18 37 30 67 26 67 -4 -1 -23 -9 -42 -20z"/>
<path d="M9282 652 c-41 -92 -92 -274 -92 -328 0 -22 45 4 92 53 53 54 82 125
81 198 0 56 -22 127 -42 139 -4 3 -22 -25 -39 -62z"/>
<path d="M9888 706 c-73 -26 -182 -105 -167 -121 13 -12 318 67 369 95 12 7 6
12 -22 24 -45 19 -129 20 -180 2z"/>
<path d="M10025 639 c-39 -15 -122 -38 -185 -52 l-115 -24 45 -13 c104 -29
262 13 311 81 12 17 20 31 18 33 -2 1 -36 -10 -74 -25z"/>
<path d="M4766 612 c-17 -7 -15 -11 20 -39 85 -67 263 -170 350 -203 22 -9 23
-8 13 18 -29 76 -104 154 -189 197 -54 27 -159 42 -194 27z"/>
<path d="M3624 576 c-9 -24 12 -44 28 -28 10 10 8 16 -5 29 -15 15 -17 15 -23
-1z"/>
<path d="M4744 565 c13 -53 60 -119 110 -153 63 -42 169 -74 232 -70 l49 3
-85 42 c-98 48 -217 124 -274 174 l-39 34 7 -30z"/>
<path d="M3590 501 c0 -10 7 -24 15 -31 12 -10 16 -9 21 4 6 16 -11 46 -27 46
-5 0 -9 -8 -9 -19z"/>
<path d="M3677 513 c-12 -12 -7 -43 7 -43 13 0 26 20 26 41 0 10 -23 12 -33 2z"/>
<path d="M9478 351 c-31 -10 -71 -29 -90 -42 l-33 -24 65 -7 c61 -6 358 7 368
16 10 10 -13 29 -62 52 -63 30 -164 32 -248 5z"/>
<path d="M9720 269 c-25 -4 -115 -8 -200 -8 -134 -1 -152 -3 -135 -15 41 -28
121 -49 195 -50 63 -1 84 3 131 27 32 15 62 34 69 42 14 17 12 17 -60 4z"/>
</g>
</svg>
